<svg width="700" height="434" viewBox="0 0 700 434" fill="none" xmlns="http://www.w3.org/2000/svg">
<path d="M288 155.596C288 227.962 243 139.218 144 139.218C45 139.218 0 227.962 0 155.596C0 83.2313 64.471 0 144 0C223.529 0 288 83.2313 288 155.596Z" fill="#333333"/>
<path d="M700 155.596C700 227.962 655 139.218 556 139.218C457 139.218 412 227.962 412 155.596C412 83.2313 476.471 0 556 0C635.529 0 700 83.2313 700 155.596Z" fill="#333333"/>
<circle cx="138" cy="233" r="40" fill="#333333"/>
<circle cx="550" cy="233" r="40" fill="#333333"/>
<path d="M231 243C231 224.447 189.362 193 138 193C86.6375 193 45 224.447 45 243" stroke="#333333" stroke-width="21" stroke-linecap="round"/>
<path d="M643 243C643 224.447 601.362 193 550 193C498.638 193 457 224.447 457 243" stroke="#333333" stroke-width="21" stroke-linecap="round"/>
<path d="M412 387C412 405.778 384.242 434 350 434C315.758 434 288 405.778 288 387C288 368.222 315.758 353 350 353C384.242 353 412 368.222 412 387Z" fill="#333333"/>
<path d="M375.311 374.207C384.031 375.876 400.101 382.385 394.617 395.073" stroke="white" stroke-width="9" stroke-linecap="round"/>
</svg>
